HIERARCHY
ROOT Hips
{
  OFFSET 0.000 57.608 0.000
  CHANNELS 6 Xposition Yposition Zposition Zrotation Xrotation Yrotation
  JOINT LeftUpLeg
  {
    OFFSET 8.014 0.638 3.168
    CHANNELS 6 Xposition Yposition Zposition Zrotation Xrotation Yrotation
    JOINT LeftLeg
    {
      OFFSET 0.000 -25.313 0.000
      CHANNELS 6 Xposition Yposition Zposition Zrotation Xrotation Yrotation
      JOINT LeftFoot
      {
        OFFSET 0.000 -32.933 0.000
        CHANNELS 6 Xposition Yposition Zposition Zrotation Xrotation Yrotation
        End Site
        {
          OFFSET 0.000 0.000 8.303
        }
      }
    }
  }
  JOINT RightUpLeg
  {
    OFFSET -8.014 0.638 3.168
    CHANNELS 6 Xposition Yposition Zposition Zrotation Xrotation Yrotation
    JOINT RightLeg
    {
      OFFSET 0.000 -25.313 0.000
      CHANNELS 6 Xposition Yposition Zposition Zrotation Xrotation Yrotation
      JOINT RightFoot
      {
        OFFSET 0.000 -32.933 0.000
        CHANNELS 6 Xposition Yposition Zposition Zrotation Xrotation Yrotation
        End Site
        {
          OFFSET 0.000 0.000 8.303
        }
      }
    }
  }
  JOINT Spine
  {
    OFFSET 0.000 28.819 0.000
    CHANNELS 6 Xposition Yposition Zposition Zrotation Xrotation Yrotation
    JOINT Spine1
    {
      OFFSET 0.000 20.999 0.000
      CHANNELS 6 Xposition Yposition Zposition Zrotation Xrotation Yrotation
      JOINT LeftShoulder
      {
        OFFSET 1.146 -0.462 0.802
        CHANNELS 6 Xposition Yposition Zposition Zrotation Xrotation Yrotation
        JOINT LeftArm
        {
          OFFSET 13.240 0.000 0.000
          CHANNELS 6 Xposition Yposition Zposition Zrotation Xrotation Yrotation
          JOINT LeftForeArm
          {
            OFFSET 19.747 0.000 0.000
            CHANNELS 6 Xposition Yposition Zposition Zrotation Xrotation Yrotation
            JOINT LeftHand
            {
              OFFSET 23.300 0.000 0.000
              CHANNELS 6 Xposition Yposition Zposition Zrotation Xrotation Yrotation
              JOINT LeftHandThumb1
              {
                OFFSET 4.877 -1.044 3.608
                CHANNELS 6 Xposition Yposition Zposition Zrotation Xrotation Yrotation
                JOINT LeftHandThumb2
                {
                  OFFSET 2.665 0.000 0.000
                  CHANNELS 6 Xposition Yposition Zposition Zrotation Xrotation Yrotation
                  JOINT LeftHandThumb3
                  {
                    OFFSET 2.543 0.000 -0.000
                    CHANNELS 6 Xposition Yposition Zposition Zrotation Xrotation Yrotation
                    End Site
                    {
                      OFFSET 2.667 0.000 -0.000
                    }
                  }
                }
              }
              JOINT LeftHandIndex1
              {
                OFFSET 9.232 -0.301 2.144
                CHANNELS 6 Xposition Yposition Zposition Zrotation Xrotation Yrotation
                JOINT LeftHandIndex2
                {
                  OFFSET 4.225 0.000 -0.000
                  CHANNELS 6 Xposition Yposition Zposition Zrotation Xrotation Yrotation
                  JOINT LeftHandIndex3
                  {
                    OFFSET 2.654 0.000 0.000
                    CHANNELS 6 Xposition Yposition Zposition Zrotation Xrotation Yrotation
                    End Site
                    {
                      OFFSET 1.958 0.000 0.000
                    }
                  }
                }
              }
              JOINT LeftHandMiddle1
              {
                OFFSET 8.920 0.000 0.000
                CHANNELS 6 Xposition Yposition Zposition Zrotation Xrotation Yrotation
                JOINT LeftHandMiddle2
                {
                  OFFSET 4.863 -0.000 -0.000
                  CHANNELS 6 Xposition Yposition Zposition Zrotation Xrotation Yrotation
                  JOINT LeftHandMiddle3
                  {
                    OFFSET 2.765 0.000 0.000
                    CHANNELS 6 Xposition Yposition Zposition Zrotation Xrotation Yrotation
                    End Site
                    {
                      OFFSET 2.006 0.000 0.000
                    }
                  }
                }
              }
              JOINT LeftHandRing1
              {
                OFFSET 8.689 -0.126 -2.087
                CHANNELS 6 Xposition Yposition Zposition Zrotation Xrotation Yrotation
                JOINT LeftHandRing2
                {
                  OFFSET 4.538 0.000 0.000
                  CHANNELS 6 Xposition Yposition Zposition Zrotation Xrotation Yrotation
                  JOINT LeftHandRing3
                  {
                    OFFSET 2.305 0.000 0.000
                    CHANNELS 6 Xposition Yposition Zposition Zrotation Xrotation Yrotation
                    End Site
                    {
                      OFFSET 1.923 -0.000 0.000
                    }
                  }
                }
              }
              JOINT LeftHandPinky1
              {
                OFFSET 8.391 -0.817 -3.758
                CHANNELS 6 Xposition Yposition Zposition Zrotation Xrotation Yrotation
                JOINT LeftHandPinky2
                {
                  OFFSET 3.044 -0.000 0.000
                  CHANNELS 6 Xposition Yposition Zposition Zrotation Xrotation Yrotation
                  JOINT LeftHandPinky3
                  {
                    OFFSET 1.975 0.000 0.000
                    CHANNELS 6 Xposition Yposition Zposition Zrotation Xrotation Yrotation
                    End Site
                    {
                      OFFSET 1.667 0.000 0.000
                    }
                  }
                }
              }
            }
          }
        }
      }
      JOINT RightShoulder
      {
        OFFSET -1.146 -0.462 0.802
        CHANNELS 6 Xposition Yposition Zposition Zrotation Xrotation Yrotation
        JOINT RightArm
        {
          OFFSET -13.240 0.000 0.000
          CHANNELS 6 Xposition Yposition Zposition Zrotation Xrotation Yrotation
          JOINT RightForeArm
          {
            OFFSET -19.747 0.000 0.000
            CHANNELS 6 Xposition Yposition Zposition Zrotation Xrotation Yrotation
            JOINT RightHand
            {
              OFFSET -23.300 0.000 0.000
              CHANNELS 6 Xposition Yposition Zposition Zrotation Xrotation Yrotation
              JOINT RightHandThumb1
              {
                OFFSET -4.877 -1.044 3.608
                CHANNELS 6 Xposition Yposition Zposition Zrotation Xrotation Yrotation
                JOINT RightHandThumb2
                {
                  OFFSET -2.665 -0.000 0.000
                  CHANNELS 6 Xposition Yposition Zposition Zrotation Xrotation Yrotation
                  JOINT RightHandThumb3
                  {
                    OFFSET -2.543 0.000 0.000
                    CHANNELS 6 Xposition Yposition Zposition Zrotation Xrotation Yrotation
                    End Site
                    {
                      OFFSET -2.667 0.000 -0.000
                    }
                  }
                }
              }
              JOINT RightHandIndex1
              {
                OFFSET -9.232 -0.301 2.144
                CHANNELS 6 Xposition Yposition Zposition Zrotation Xrotation Yrotation
                JOINT RightHandIndex2
                {
                  OFFSET -4.225 0.000 -0.000
                  CHANNELS 6 Xposition Yposition Zposition Zrotation Xrotation Yrotation
                  JOINT RightHandIndex3
                  {
                    OFFSET -2.654 -0.000 0.000
                    CHANNELS 6 Xposition Yposition Zposition Zrotation Xrotation Yrotation
                    End Site
                    {
                      OFFSET -1.958 0.000 0.000
                    }
                  }
                }
              }
              JOINT RightHandMiddle1
              {
                OFFSET -8.920 0.000 0.000
                CHANNELS 6 Xposition Yposition Zposition Zrotation Xrotation Yrotation
                JOINT RightHandMiddle2
                {
                  OFFSET -4.863 -0.000 0.000
                  CHANNELS 6 Xposition Yposition Zposition Zrotation Xrotation Yrotation
                  JOINT RightHandMiddle3
                  {
                    OFFSET -2.765 0.000 0.000
                    CHANNELS 6 Xposition Yposition Zposition Zrotation Xrotation Yrotation
                    End Site
                    {
                      OFFSET -2.006 0.000 0.000
                    }
                  }
                }
              }
              JOINT RightHandRing1
              {
                OFFSET -8.689 -0.126 -2.087
                CHANNELS 6 Xposition Yposition Zposition Zrotation Xrotation Yrotation
                JOINT RightHandRing2
                {
                  OFFSET -4.538 0.000 0.000
                  CHANNELS 6 Xposition Yposition Zposition Zrotation Xrotation Yrotation
                  JOINT RightHandRing3
                  {
                    OFFSET -2.305 0.000 0.000
                    CHANNELS 6 Xposition Yposition Zposition Zrotation Xrotation Yrotation
                    End Site
                    {
                      OFFSET -1.923 0.000 0.000
                    }
                  }
                }
              }
              JOINT RightHandPinky1
              {
                OFFSET -8.391 -0.817 -3.758
                CHANNELS 6 Xposition Yposition Zposition Zrotation Xrotation Yrotation
                JOINT RightHandPinky2
                {
                  OFFSET -3.044 0.000 0.000
                  CHANNELS 6 Xposition Yposition Zposition Zrotation Xrotation Yrotation
                  JOINT RightHandPinky3
                  {
                    OFFSET -1.975 -0.000 0.000
                    CHANNELS 6 Xposition Yposition Zposition Zrotation Xrotation Yrotation
                    End Site
                    {
                      OFFSET -1.667 0.000 0.000
                    }
                  }
                }
              }
            }
          }
        }
      }
      JOINT Neck
      {
        OFFSET 0.000 0.690 0.000
        CHANNELS 6 Xposition Yposition Zposition Zrotation Xrotation Yrotation
        JOINT Head
        {
          OFFSET 0.000 6.131 0.000
          CHANNELS 6 Xposition Yposition Zposition Zrotation Xrotation Yrotation
          End Site
          {
            OFFSET 0.000 11.953 0.000
          }
        }
      }
    }
  }
}
MOTION
Frames:	4
Frame Time:	0.033333
-66.55724 68.88455 -188.15509 2.97679 -0.77259 9.84988 9.26005 0.00478 3.24488 1.40363 13.97551 33.80344 0.04583 -26.42091 -0.81577 -10.14179 -4.55966 -14.90758 0.19696 -32.27360 -0.28855 1.83017 9.81491 -11.63263 -7.91761 1.49970 3.01409 17.32786 -13.57680 38.06630 2.38329 -25.97681 0.28947 -48.11509 33.41503 -30.18721 -0.10754 -31.76417 0.11172 -15.99746 -17.36786 35.50835 0.06408 29.21943 -0.09579 -0.93270 2.36827 3.77977 0.07998 21.58009 -0.06251 -0.65497 2.42729 3.51309 0.89227 -0.57391 0.84445 -17.86241 17.29406 -40.99426 12.25754 -0.17528 0.14871 -20.47812 -14.63432 18.48336 16.26787 -0.20322 0.36533 154.57562 -33.50624 7.69228 17.07506 -0.01135 -0.43329 36.23870 -20.28245 -15.51277 4.87701 -1.04400 3.60801 -41.57594 -8.45725 -7.72882 2.66501 0.00000 0.00000 0.00000 0.00000 5.00000 2.54299 0.00000 -0.00001 -0.00000 -0.00000 60.00000 9.23200 -0.30099 2.14400 -80.00000 0.00000 0.00000 4.22501 0.00001 -0.00001 -90.00000 -0.00000 0.00000 2.65402 0.00000 0.00001 -70.00000 -0.00000 0.00000 8.92001 0.00001 0.00001 -80.00000 0.00000 0.00000 4.86299 -0.00001 -0.00001 -90.00000 -0.00000 0.00000 2.76499 0.00000 0.00000 -70.00000 -0.00000 0.00000 8.68900 -0.12599 -2.08701 -80.00000 0.00000 0.00000 4.53800 0.00000 0.00001 -90.00000 -0.00000 0.00000 2.30501 0.00000 0.00002 -70.00000 -0.00000 0.00000 8.39101 -0.81699 -3.75800 -80.00000 0.00000 0.00000 3.04400 -0.00001 0.00000 -90.00000 -0.00000 0.00000 1.97501 0.00000 0.00001 -70.00000 -0.00000 0.00000 -0.82307 -0.25005 0.88086 8.27021 8.67140 45.77376 -11.21290 -0.06799 0.06623 57.67204 10.07278 13.82922 -15.36900 -0.00693 -0.00452 114.04171 19.00938 57.06931 -19.42807 -0.69117 0.54696 21.53017 14.56999 -11.05772 -4.87702 -1.04398 3.60799 37.43334 21.26197 8.21130 -2.66502 -0.00001 0.00000 -0.00000 -0.00000 -5.00517 -2.54301 0.00000 0.00000 0.00000 -0.00000 -59.99594 -9.23200 -0.30100 2.14400 79.99458 -0.00001 0.00000 -4.22502 0.00001 -0.00001 89.99640 0.00000 -0.00000 -2.65400 -0.00001 0.00000 69.99639 0.00485 0.00472 -8.92000 0.00000 0.00000 79.99458 -0.00001 0.00000 -4.86300 -0.00001 0.00000 89.99640 0.00000 -0.00000 -2.76502 0.00000 0.00001 69.99639 0.00485 0.00472 -8.68900 -0.12600 -2.08701 79.99458 -0.00001 0.00000 -4.53801 0.00000 0.00001 89.99640 0.00000 -0.00000 -2.30501 0.00000 0.00001 69.99639 0.00485 0.00472 -8.39102 -0.81701 -3.75800 79.99458 -0.00001 0.00000 -3.04401 0.00000 0.00000 89.99640 0.00000 -0.00000 -1.97498 -0.00001 0.00000 69.99639 0.00485 0.00472 0.00002 0.71336 0.00000 0.00000 -0.00004 -0.00001 0.06957 6.46552 -0.03122 3.22072 -12.30933 15.04510 
-64.42332 70.85600 -187.51456 4.13588 -2.18070 9.86370 9.29174 0.03841 3.22411 -4.74568 15.06680 20.28576 0.10486 -27.22393 -1.36757 -3.82398 -10.13091 -3.07051 0.06173 -33.65656 -0.11500 2.27524 11.22480 -11.66207 -8.03138 1.19403 3.10079 20.87404 -7.86139 40.33855 2.12398 -27.38178 0.12720 -50.07191 28.63716 -29.78333 0.07902 -31.02949 -0.21169 -15.08254 -1.14662 31.95406 0.03045 29.02108 -0.06364 -0.43435 2.46881 2.02578 0.08224 21.22327 -0.04123 -1.10888 2.81343 1.46109 0.90172 -0.61749 0.81309 -20.14576 18.35307 -39.27907 12.30831 -0.14781 0.11540 -21.70022 -11.90795 12.73801 15.98241 -0.35663 0.21484 154.32045 -29.98229 3.19928 17.08343 -0.00058 -0.31705 46.83410 -16.20336 -17.31682 4.87701 -1.04400 3.60801 -41.57594 -8.45725 -7.72882 2.66501 0.00000 0.00000 0.00000 0.00000 5.00000 2.54299 0.00000 -0.00001 -0.00000 -0.00000 60.00000 9.23200 -0.30099 2.14400 -80.00000 0.00000 0.00000 4.22501 0.00001 -0.00001 -90.00000 -0.00000 0.00000 2.65402 0.00000 0.00001 -70.00000 -0.00000 0.00000 8.92001 0.00001 0.00001 -80.00000 0.00000 0.00000 4.86299 -0.00001 -0.00001 -90.00000 -0.00000 0.00000 2.76499 0.00000 0.00000 -70.00000 -0.00000 0.00000 8.68900 -0.12599 -2.08701 -80.00000 0.00000 0.00000 4.53800 0.00000 0.00001 -90.00000 -0.00000 0.00000 2.30501 0.00000 0.00002 -70.00000 -0.00000 0.00000 8.39101 -0.81699 -3.75800 -80.00000 0.00000 0.00000 3.04400 -0.00001 0.00000 -90.00000 -0.00000 0.00000 1.97501 0.00000 0.00001 -70.00000 -0.00000 0.00000 -0.85673 -0.19395 0.82465 6.67684 6.82851 43.09160 -11.06046 -0.16174 0.04789 57.41432 13.26873 -2.50863 -12.85528 -0.41297 0.03364 120.67429 25.88274 53.08031 -19.09134 -0.12377 0.27627 23.36407 0.55230 -12.12024 -4.87702 -1.04398 3.60799 37.43334 21.26197 8.21130 -2.66502 -0.00001 0.00000 -0.00000 -0.00000 -5.00517 -2.54301 0.00000 0.00000 0.00000 -0.00000 -59.99594 -9.23200 -0.30100 2.14400 79.99458 -0.00001 0.00000 -4.22502 0.00001 -0.00001 89.99640 0.00000 -0.00000 -2.65400 -0.00001 0.00000 69.99639 0.00485 0.00472 -8.92000 0.00000 0.00000 79.99458 -0.00001 0.00000 -4.86300 -0.00001 0.00000 89.99640 0.00000 -0.00000 -2.76502 0.00000 0.00001 69.99639 0.00485 0.00472 -8.68900 -0.12600 -2.08701 79.99458 -0.00001 0.00000 -4.53801 0.00000 0.00001 89.99640 0.00000 -0.00000 -2.30501 0.00000 0.00001 69.99639 0.00485 0.00472 -8.39102 -0.81701 -3.75800 79.99458 -0.00001 0.00000 -3.04401 0.00000 0.00000 89.99640 0.00000 -0.00000 -1.97498 -0.00001 0.00000 69.99639 0.00485 0.00472 0.00002 0.70446 0.00000 0.00000 -0.00004 -0.00001 0.07770 6.39050 -0.03337 0.95627 -10.67985 17.99173 
-62.86013 72.32106 -187.12746 4.89536 -3.23434 9.89266 9.32369 0.21596 3.20971 -8.94043 16.24008 10.91014 -0.06844 -27.93861 -1.40721 1.74458 -11.55042 5.61414 0.05087 -35.32999 -0.06108 1.75583 11.26035 -9.15006 -8.08156 0.90275 3.16893 25.35231 -0.75072 45.64945 1.83767 -27.86068 -0.25421 -57.91232 33.95741 -29.57014 -0.18341 -32.79231 -0.00768 -13.23704 -1.27245 52.41787 0.01866 28.82058 -0.03771 -0.49087 2.27534 2.43313 0.04997 20.97256 -0.01086 -1.14394 2.84857 1.84298 0.95754 -0.60843 0.71981 -21.61967 16.28953 -34.41103 12.10733 -0.17508 0.04457 -25.95449 -3.11410 -1.85646 16.54381 -0.71349 0.69292 152.19063 -25.57420 -7.00602 16.45751 0.01965 -0.24643 55.01195 -7.12544 -20.94120 4.87701 -1.04400 3.60801 -41.57594 -8.45725 -7.72882 2.66501 0.00000 0.00000 0.00000 0.00000 5.00000 2.54299 0.00000 -0.00001 -0.00000 -0.00000 60.00000 9.23200 -0.30099 2.14400 -80.00000 0.00000 0.00000 4.22501 0.00001 -0.00001 -90.00000 -0.00000 0.00000 2.65402 0.00000 0.00001 -70.00000 -0.00000 0.00000 8.92001 0.00001 0.00001 -80.00000 0.00000 0.00000 4.86299 -0.00001 -0.00001 -90.00000 -0.00000 0.00000 2.76499 0.00000 0.00000 -70.00000 -0.00000 0.00000 8.68900 -0.12599 -2.08701 -80.00000 0.00000 0.00000 4.53800 0.00000 0.00001 -90.00000 -0.00000 0.00000 2.30501 0.00000 0.00002 -70.00000 -0.00000 0.00000 8.39101 -0.81699 -3.75800 -80.00000 0.00000 0.00000 3.04400 -0.00001 0.00000 -90.00000 -0.00000 0.00000 1.97501 0.00000 0.00001 -70.00000 -0.00000 0.00000 -0.95816 -0.16021 0.73232 5.98382 5.09488 37.17347 -11.17510 -0.16427 -0.02785 52.09198 13.20847 -17.31603 -11.04114 -0.85138 -0.64854 133.10307 29.98248 42.04364 -19.17746 0.24971 0.23529 30.57095 -13.27321 -14.93507 -4.87702 -1.04398 3.60799 37.43334 21.26197 8.21130 -2.66502 -0.00001 0.00000 -0.00000 -0.00000 -5.00517 -2.54301 0.00000 0.00000 0.00000 -0.00000 -59.99594 -9.23200 -0.30100 2.14400 79.99458 -0.00001 0.00000 -4.22502 0.00001 -0.00001 89.99640 0.00000 -0.00000 -2.65400 -0.00001 0.00000 69.99639 0.00485 0.00472 -8.92000 0.00000 0.00000 79.99458 -0.00001 0.00000 -4.86300 -0.00001 0.00000 89.99640 0.00000 -0.00000 -2.76502 0.00000 0.00001 69.99639 0.00485 0.00472 -8.68900 -0.12600 -2.08701 79.99458 -0.00001 0.00000 -4.53801 0.00000 0.00001 89.99640 0.00000 -0.00000 -2.30501 0.00000 0.00001 69.99639 0.00485 0.00472 -8.39102 -0.81701 -3.75800 79.99458 -0.00001 0.00000 -3.04401 0.00000 0.00000 89.99640 0.00000 -0.00000 -1.97498 -0.00001 0.00000 69.99639 0.00485 0.00472 0.00002 0.69460 0.00000 0.00000 -0.00004 -0.00001 0.07012 6.29984 -0.02353 -2.79857 -8.97880 14.84970 
-61.71691 73.47652 -186.84100 5.08541 -4.18326 11.08208 9.11533 0.44529 3.23633 -10.68155 17.50171 4.25780 -0.17433 -28.53200 -1.15550 5.20711 -11.76630 10.84310 0.03606 -35.80124 -0.04266 0.95665 11.40022 -5.14945 -8.02228 0.64005 3.21491 22.44285 4.66383 44.91243 1.32019 -28.29172 -0.34548 -45.32585 27.22332 -33.29377 -0.74593 -29.85691 -0.90599 -11.65159 9.49582 35.80657 0.00080 28.54434 -0.01599 -1.09813 2.02050 3.87214 -0.00960 20.59131 0.00174 -1.15238 2.78278 3.35716 1.06844 -0.48665 0.52568 -18.06690 11.62716 -26.32860 11.42926 -0.36734 -0.22363 -31.90598 8.53954 -22.41364 16.97803 -0.70426 1.06985 148.13397 -18.12234 -21.72652 15.99199 0.03216 -0.22615 63.95914 -7.36227 -21.86966 4.87701 -1.04400 3.60801 -41.57594 -8.45725 -7.72882 2.66501 0.00000 0.00000 0.00000 0.00000 5.00000 2.54299 0.00000 -0.00001 -0.00000 -0.00000 60.00000 9.23200 -0.30099 2.14400 -80.00000 0.00000 0.00000 4.22501 0.00001 -0.00001 -90.00000 -0.00000 0.00000 2.65402 0.00000 0.00001 -70.00000 -0.00000 0.00000 8.92001 0.00001 0.00001 -80.00000 0.00000 0.00000 4.86299 -0.00001 -0.00001 -90.00000 -0.00000 0.00000 2.76499 0.00000 0.00000 -70.00000 -0.00000 0.00000 8.68900 -0.12599 -2.08701 -80.00000 0.00000 0.00000 4.53800 0.00000 0.00001 -90.00000 -0.00000 0.00000 2.30501 0.00000 0.00002 -70.00000 -0.00000 0.00000 8.39101 -0.81699 -3.75800 -80.00000 0.00000 0.00000 3.04400 -0.00001 0.00000 -90.00000 -0.00000 0.00000 1.97501 0.00000 0.00001 -70.00000 -0.00000 0.00000 -1.10126 -0.13434 0.58994 5.59816 3.28999 28.58863 -11.48604 -0.10271 -0.12408 38.69457 10.67570 -25.52162 -10.15595 -0.96113 -1.84118 151.33611 24.37889 27.32005 -19.41710 0.41141 0.21361 36.59245 -23.12699 -16.55876 -4.87702 -1.04398 3.60799 37.43334 21.26197 8.21130 -2.66502 -0.00001 0.00000 -0.00000 -0.00000 -5.00517 -2.54301 0.00000 0.00000 0.00000 -0.00000 -59.99594 -9.23200 -0.30100 2.14400 79.99458 -0.00001 0.00000 -4.22502 0.00001 -0.00001 89.99640 0.00000 -0.00000 -2.65400 -0.00001 0.00000 69.99639 0.00485 0.00472 -8.92000 0.00000 0.00000 79.99458 -0.00001 0.00000 -4.86300 -0.00001 0.00000 89.99640 0.00000 -0.00000 -2.76502 0.00000 0.00001 69.99639 0.00485 0.00472 -8.68900 -0.12600 -2.08701 79.99458 -0.00001 0.00000 -4.53801 0.00000 0.00001 89.99640 0.00000 -0.00000 -2.30501 0.00000 0.00001 69.99639 0.00485 0.00472 -8.39102 -0.81701 -3.75800 79.99458 -0.00001 0.00000 -3.04401 0.00000 0.00000 89.99640 0.00000 -0.00000 -1.97498 -0.00001 0.00000 69.99639 0.00485 0.00472 0.00002 0.67702 0.00000 0.00000 -0.00004 -0.00001 0.03705 6.12903 -0.01220 -5.66195 -6.58122 10.30228 
